# xmcd CD database file
#
# Track frame offsets:
#	150
#	17677
#	30966
#	45819
#	59604
#	78276
#	91858
#	104430
#	114759
#	126771
#	147652
#	160223
#
# Disc length: 2376 seconds
#
# Revision: 0
# Processed by: cddbd v1.5.2PL0 Copyright (c) Steve Scherf et al.
# Submitted via: CDex 1.70beta2
#
DISCID=8b09460c
DTITLE=Foster, Jerry - Cdn. ON - Picton - Bars and Bedrooms
DYEAR=2003
DGENRE=Country
TTITLE0=Night People
TTITLE1=Kissing You Goodbye
TTITLE2=I May Be Lonesom
TTITLE3=Soet Soiled Shoes
TTITLE4=The Cod Jigger's Waltz
TTITLE5=Born For Trouble
TTITLE6=If You Think You've Seen Bottom
TTITLE7=Spots
TTITLE8=That Place
TTITLE9=I Can Tell
TTITLE10=Raunchy Songs
TTITLE11=Just One More Drink
EXTD=YEAR: 2003
EXTT0=
EXTT1=
EXTT2=
EXTT3=
EXTT4=
EXTT5=
EXTT6=
EXTT7=
EXTT8=
EXTT9=
EXTT10=
EXTT11=
PLAYORDER=
